<svg width="200" height="200" viewBox="0 0 200 200" xmlns="http://www.w3.org/2000/svg">
  <defs>
    <linearGradient id="powerToolsGradient" x1="0%" y1="0%" x2="100%" y2="100%">
      <stop offset="0%" style="stop-color:#1a2640;stop-opacity:1" />
      <stop offset="100%" style="stop-color:#2d3748;stop-opacity:1" />
    </linearGradient>
    <filter id="shadow" x="-20%" y="-20%" width="140%" height="140%">
      <feDropShadow dx="0" dy="4" stdDeviation="8" flood-color="#1a2640" flood-opacity="0.3"/>
    </filter>
  </defs>
  
  <!-- Background Circle -->
  <circle cx="100" cy="100" r="90" fill="url(#powerToolsGradient)" filter="url(#shadow)"/>
  
  <!-- Drill Icon -->
  <g transform="translate(50, 60)">
    <!-- Drill Body -->
    <rect x="20" y="25" width="60" height="25" rx="5" fill="#ffffff" opacity="0.9"/>
    <!-- Drill Handle -->
    <rect x="15" y="35" width="15" height="35" rx="3" fill="#ffffff" opacity="0.9"/>
    <!-- Drill Chuck -->
    <rect x="80" y="30" width="20" height="15" rx="2" fill="#ffffff" opacity="0.9"/>
    <!-- Drill Bit -->
    <rect x="100" y="35" width="15" height="5" fill="#ffffff" opacity="0.9"/>
    <!-- Power Cord -->
    <path d="M15 50 Q5 55 10 65 Q15 70 5 75" stroke="#ffffff" stroke-width="3" fill="none" opacity="0.7"/>
    <!-- Chuck Lines -->
    <line x1="82" y1="32" x2="82" y2="43" stroke="#1a2640" stroke-width="1"/>
    <line x1="86" y1="32" x2="86" y2="43" stroke="#1a2640" stroke-width="1"/>
    <line x1="90" y1="32" x2="90" y2="43" stroke="#1a2640" stroke-width="1"/>
    <line x1="94" y1="32" x2="94" y2="43" stroke="#1a2640" stroke-width="1"/>
    <line x1="98" y1="32" x2="98" y2="43" stroke="#1a2640" stroke-width="1"/>
  </g>
  
  <!-- Speed Lines -->
  <g opacity="0.6">
    <line x1="130" y1="40" x2="140" y2="35" stroke="#ffffff" stroke-width="2"/>
    <line x1="135" y1="50" x2="145" y2="50" stroke="#ffffff" stroke-width="2"/>
    <line x1="130" y1="60" x2="140" y2="65" stroke="#ffffff" stroke-width="2"/>
  </g>
</svg>
